<?xml version="1.0" encoding="UTF-8" standalone="no"?>
<!-- Created with Inkscape (http://www.inkscape.org/) -->
<svg
   xmlns:svg="http://www.w3.org/2000/svg"
   xmlns="http://www.w3.org/2000/svg"
   version="1.0"
   width="800"
   height="223.83266"
   id="svg3482">
  <defs
     id="defs3484" />
  <g
     transform="translate(-51.41749,-367.59981)"
     id="layer1">
    <g
       transform="matrix(0.9875,0,0,0.9875,-110.03586,5.9939505)"
       id="g3499">
      <path
         d="M 638.30323,374.32418 C 635.21572,402.04405 632.52905,430.24944 634.23923,457.96368 L 650.33163,453.57793 C 650.57434,428.05371 651.47181,402.77218 654.88674,376.76254 L 702.76296,373.83875 C 698.69896,401.79574 696.09688,432.6878 695.12039,460.80839 L 714.05754,451.95224 L 703.7395,497.71193 L 660.81901,507.14373 C 654.63834,507.38644 655.12945,506.16733 653.17643,504.21434 C 650.73799,500.6414 651.71452,494.30268 651.47181,490.72409 L 602.86176,506.16733 C 597.82118,507.38644 594.73367,506.16733 593.51447,505.19083 C 586.76945,496.74113 587.01216,475.52357 586.12025,459.18288 C 586.36296,443.01142 588.47398,423.25583 591.1551,406.35077 L 580.58878,413.58696 L 590.91238,374.32418 L 638.30323,374.32418 z"
         id="path2564"
         style="fill:#000000;fill-opacity:1;fill-rule:nonzero;stroke:none" />
      <path
         d="M 882.80417,373.91778 L 953.28084,375.6224 C 960.43231,375.6224 963.35617,382.61588 962.62804,385.53971 L 956.36831,416.3471 L 919.05853,418.78551 L 921.4179,409.11655 L 902.47506,410.82122 L 900.77044,470.07672 L 916.37737,468.12938 L 918.08199,455.85265 L 909.22022,457.55732 L 915.40088,433.00958 L 966.20097,430.08571 C 959.78324,454.87616 956.85373,471.05316 957.09644,504.54172 C 936.53368,507.62929 931.25057,509.0968 910.36035,515.35085 C 910.84577,507.87759 911.09417,506.4947 912.06497,499.9922 L 875.65266,509.33951 C 866.79084,509.58222 862.72684,504.0563 861.02221,499.74393 C 853.37955,481.13421 852.88848,420.1684 860.77381,388.63292 C 863.46061,382.85859 865.81435,374.16049 882.80417,373.91778"
         id="path2566"
         style="fill:#000000;fill-opacity:1;fill-rule:nonzero;stroke:none" />
      <path
         d="M 375.26036,429.67922 L 376.31592,404.23979 L 395.10622,403.34218 L 391.60101,425.2089 C 391.51639,426.4281 391.03097,427.4045 389.82297,427.4045 L 375.26036,429.67922 z M 395.66502,465.44822 L 382.25944,512.26338 L 434.2731,513.23983 L 445.48872,474.38904 L 431.2646,480.80669 L 439.72564,456.01634 C 441.75205,450.40579 440.44822,445.69263 434.5159,444.55809 L 417.04066,443.49698 L 426.63059,439.83933 C 431.42829,438.1347 434.03038,434.96252 435.24959,429.19388 L 444.67587,383.26499 C 446.46512,375.94978 441.83107,368.47088 435.57137,368.39181 C 416.55524,367.65807 400.69988,367.41536 385.25664,367.74274 L 385.25664,367.81047 C 367.78141,368.1491 350.63356,369.36834 329.74342,371.40035 L 320.06883,412.85323 C 323.89012,410.90589 327.71142,409.11655 331.28436,407.65464 L 332.09711,506.00933 L 374.12018,506.00933 L 376.0732,463.98071 L 395.66502,465.44822 z"
         id="path2568"
         style="fill:#000000;fill-opacity:1;fill-rule:nonzero;stroke:none" />
      <path
         d="M 776.89159,431.54762 L 777.1343,405.0469 L 794.85795,405.0469 L 792.09208,429.03019 L 776.89159,431.54762 z M 795.01595,469.18485 L 781.1983,516.49103 L 831.75572,516.73374 L 843.7107,481.4559 L 831.19119,486.98182 L 840.70212,458.86105 C 842.89217,452.60144 841.26661,450.32672 836.31079,448.53743 L 814.12248,447.39725 L 826.47812,442.11404 C 830.70012,440.24573 832.73221,437.3163 833.95146,431.54762 L 845.17261,383.59237 C 845.90075,378.06085 844.03235,373.42675 837.03892,371.39475 C 820.05475,370.66652 802.98595,370.03434 785.83248,370.1755 C 766.32514,370.33915 746.56954,371.15204 726.81963,373.26871 L 718.12159,416.99622 L 729.99185,412.11941 L 728.6879,505.76093 L 774.21043,505.76093 L 774.93857,466.7408 L 795.01595,469.18485 z"
         id="path2570"
         style="fill:#000000;fill-opacity:1;fill-rule:nonzero;stroke:none" />
      <path
         d="M 234.96737,478.93847 L 231.23074,505.76093 L 181.56518,505.76093 L 188.3103,484.14266 C 182.37798,485.2772 178.96308,486.01097 172.05436,487.55191 L 184.40998,451.13953 L 201.07241,449.67752 C 207.81754,432.19664 209.68585,428.46015 216.59467,412.6895 L 193.02342,419.3556 L 206.92572,376.27716 C 224.47997,374.08146 236.51395,372.69853 248.54229,371.72208 C 265.28938,370.36741 281.95177,369.77474 313.24468,368.63461 L 301.45906,407.24259 C 294.9566,405.94428 288.21152,405.6169 281.78813,405.37428 L 319.82611,505.76093 L 268.13414,505.76093 L 263.50005,476.49997 L 234.96737,478.93847 z M 255.93652,449.27121 L 249.19149,421.30849 L 241.14241,449.27121 L 255.93652,449.27121 z"
         id="path2572"
         style="fill:#000000;fill-opacity:1;fill-rule:nonzero;stroke:none" />
      <path
         d="M 512.55045,504.16919 C 487.8108,505.62545 461.82937,506.16733 461.82937,506.16733 L 463.21226,407.81269 L 453.05229,411.713 L 464.02511,371.64306 C 481.98568,371.07297 499.38189,370.50288 515.47428,370.1811 C 533.60432,369.8143 550.26669,369.77474 564.49069,370.26017 C 572.21234,371.47942 573.43158,378.95827 572.46074,383.02228 L 562.54336,424.23241 C 561.80958,428.78753 560.02034,431.30491 556.19901,433.5006 C 550.75212,435.85999 546.77283,437.07919 542.70883,438.5411 L 563.67798,440.00302 C 569.93758,440.40933 573.51616,443.41791 570.99314,451.13953 L 561.97336,491.94329 C 560.83318,496.1709 556.60536,499.66491 551.48594,500.47762 C 543.83767,501.64602 528.45093,503.23221 512.55045,504.16919 M 521.32753,473.89788 L 524.33612,456.66545 L 505.64164,457.15087 L 504.01603,474.87446 L 521.32753,473.89788 z M 521.41224,427.2409 L 526.20439,405.37428 L 506.04799,405.37428 L 504.74986,428.13837 L 521.41224,427.2409 z"
         id="path2574"
         style="fill:#000000;fill-opacity:1;fill-rule:nonzero;stroke:none" />
      <path
         d="M 968.56035,591.43247 L 168.56035,591.43247 L 168.56035,539.97761 L 968.56035,539.97761 L 968.56035,591.43247 z"
         id="path2576"
         style="fill:#08a883;fill-opacity:1;fill-rule:nonzero;stroke:none" />
    </g>
  </g>
</svg>
